<svg width="62" height="101" viewBox="0 0 62 101" fill="none" xmlns="http://www.w3.org/2000/svg">
<path fill-rule="evenodd" clip-rule="evenodd" d="M27.0778 58.6389L20.3945 42.4761L25.1402 40.9017L31.8235 57.0645L27.0778 58.6389ZM18.8341 38.7023L16.4896 33.0324L21.2353 31.4581L23.5798 37.1279L18.8341 38.7023Z" fill="url(#paint0_linear_7_26)"/>
<path d="M50.7609 97.8648C50.2489 97.8648 49.9929 97.7368 49.9929 97.4808C50.6969 92.9368 51.1769 88.5528 51.4329 84.3288C51.6889 80.1048 51.8169 76.0408 51.8169 72.1368C51.8169 67.8488 51.7209 63.3368 51.5289 58.6008C51.3369 53.8648 51.0169 49.1608 50.5689 44.4888C50.1849 39.8168 49.6729 35.4648 49.0329 31.4328L51.5289 29.7048L60.1689 34.1208C60.1049 37.5128 59.9449 41.4168 59.6889 45.8328C59.4969 50.1848 59.2409 54.7608 58.9209 59.5608C58.6649 64.2968 58.3449 68.9688 57.9609 73.5768C57.5769 78.1848 57.1289 82.4728 56.6169 86.4408C56.1689 90.3448 55.6889 93.6408 55.1769 96.3288C54.7929 96.7768 54.0889 97.1288 53.0649 97.3848C52.0409 97.7048 51.2729 97.8648 50.7609 97.8648Z" fill="url(#paint1_linear_7_26)"/>
<path fill-rule="evenodd" clip-rule="evenodd" d="M48.9929 97.4038L49.0047 97.3277C49.7043 92.8118 50.1807 88.4588 50.4347 84.2683C50.6896 80.0628 50.8169 76.019 50.8169 72.1368C50.8169 67.8636 50.7212 63.3652 50.5297 58.6413C50.3384 53.9235 50.0197 49.2378 49.5734 44.5842L49.5721 44.5707C49.1899 39.9202 48.6808 35.5934 48.0452 31.5895L47.9467 30.9685L51.4514 28.5421L61.1805 33.5148L61.1687 34.1396C61.1044 37.5461 60.9439 41.4613 60.6876 45.8838C60.4954 50.24 60.2392 54.8191 59.9191 59.621C59.6626 64.3643 59.3421 69.0439 58.9574 73.6598C58.5726 78.2779 58.1234 82.5787 57.6096 86.5618C57.1601 90.4777 56.677 93.7974 56.1592 96.5159L56.1094 96.7774L55.9361 96.9796C55.3521 97.661 54.4101 98.0761 53.3358 98.3478C52.3087 98.6674 51.428 98.8648 50.7609 98.8648C50.4538 98.8648 50.0746 98.8317 49.7377 98.6632C49.555 98.5719 49.358 98.4272 49.2088 98.2035C49.0555 97.9735 48.9929 97.7198 48.9929 97.4808V97.4038ZM53.0649 97.3848C54.0889 97.1288 54.7929 96.7768 55.1769 96.3288C55.6889 93.6408 56.1689 90.3448 56.6169 86.4408C57.1289 82.4728 57.5769 78.1848 57.9609 73.5768C58.3449 68.9688 58.6649 64.2968 58.9209 59.5608C59.2409 54.7608 59.4969 50.1848 59.6889 45.8328C59.9449 41.4168 60.1049 37.5128 60.1689 34.1208L51.5289 29.7048L49.0329 31.4328C49.6729 35.4648 50.1849 39.8168 50.5689 44.4888C51.0169 49.1608 51.3369 53.8648 51.5289 58.6008C51.7209 63.3368 51.8169 67.8488 51.8169 72.1368C51.8169 76.0408 51.6889 80.1048 51.4329 84.3288C51.1769 88.5528 50.6969 92.9368 49.9929 97.4808C49.9929 97.7368 50.2489 97.8648 50.7609 97.8648C51.2729 97.8648 52.0409 97.7048 53.0649 97.3848Z" fill="black"/>
<path d="M43.2588 99.8188C37.6908 99.8188 34.1388 96.1708 32.6028 88.8748L30.3948 78.2188C29.6908 74.7628 28.8908 72.1388 27.9948 70.3468C27.1628 68.5548 25.9788 67.3388 24.4428 66.6988C22.9708 66.0588 20.9228 65.7388 18.2988 65.7388C17.4028 65.7388 16.6988 65.9948 16.1868 66.5068C15.6748 66.9548 15.4188 67.5308 15.4188 68.2348V92.2348C15.4188 93.5788 15.6748 94.5068 16.1868 95.0188C16.6988 95.4668 17.8508 95.8508 19.6428 96.1708L23.1948 96.7468C23.8988 96.8748 24.2508 97.2268 24.2508 97.8028C24.2508 98.5708 23.7708 98.9548 22.8108 98.9548H3.32281C2.36281 98.9548 1.88281 98.6028 1.88281 97.8988C1.88281 97.3228 2.29881 96.9388 3.13081 96.7468L5.33881 96.3628C6.68281 96.1068 7.54681 95.7548 7.93081 95.3068C8.37881 94.8588 8.60281 93.9628 8.60281 92.6188V36.1708C8.60281 34.8268 8.37881 33.9308 7.93081 33.4828C7.54681 33.0348 6.68281 32.6828 5.33881 32.4268L3.13081 32.0428C2.29881 31.8508 1.88281 31.4668 1.88281 30.8908C1.88281 30.1868 2.36281 29.8348 3.32281 29.8348H22.8108C26.5868 29.8348 29.9468 30.5708 32.8908 32.0428C35.8348 33.5148 38.1388 35.5628 39.8028 38.1868C41.4668 40.7468 42.2988 43.7228 42.2988 47.1148C42.2988 51.1468 41.0828 54.7948 38.6508 58.0588C36.2188 61.2588 33.1468 63.5308 29.4348 64.8748C28.9868 65.0028 28.7308 65.2268 28.6668 65.5468C28.6668 65.8028 28.8908 66.0268 29.3388 66.2188C31.3868 67.1788 32.9868 68.5228 34.1388 70.2508C35.3548 71.9788 36.2828 74.2828 36.9228 77.1628L39.0348 86.9548C39.7388 90.2828 40.5708 92.6508 41.5308 94.0588C42.4908 95.4668 43.7068 96.1708 45.1788 96.1708C45.6908 96.1708 46.1388 96.1068 46.5228 95.9788C46.9708 95.7868 47.5148 95.4668 48.1548 95.0188C48.6668 94.6988 49.1468 94.6348 49.5948 94.8268C50.0428 94.9548 50.2668 95.2748 50.2668 95.7868C50.2668 96.8748 49.5628 97.8348 48.1548 98.6668C46.7468 99.4348 45.1148 99.8188 43.2588 99.8188ZM21.8508 63.3388C26.2028 63.3388 29.4988 61.8988 31.7388 59.0188C33.9788 56.0748 35.0988 52.1708 35.0988 47.3068C35.0988 42.5708 33.7868 38.8908 31.1628 36.2668C28.6028 33.5788 25.0508 32.2348 20.5068 32.2348C17.1148 32.2348 15.4188 33.5148 15.4188 36.0748V58.0588C15.4188 61.5788 17.5628 63.3388 21.8508 63.3388Z" fill="url(#paint2_linear_7_26)"/>
<path fill-rule="evenodd" clip-rule="evenodd" d="M31.6243 89.0808L31.6236 89.0777L29.4149 78.4184C28.7173 74.9938 27.9383 72.4699 27.1004 70.7941L27.0939 70.7811L27.0878 70.768C26.3402 69.1577 25.3214 68.1483 24.0582 67.6219L24.0511 67.619L24.0441 67.6159C22.7529 67.0545 20.862 66.7388 18.2988 66.7388C17.6013 66.7388 17.1759 66.9319 16.8939 67.2139L16.8704 67.2375L16.8453 67.2594C16.5588 67.5101 16.4188 67.8077 16.4188 68.2348V92.2348C16.4188 93.4724 16.6584 94.0524 16.8706 94.2872C16.991 94.3818 17.2558 94.5291 17.751 94.6942C18.2631 94.8648 18.9451 95.0302 19.8108 95.185L23.3643 95.7613L23.3737 95.763C23.842 95.8481 24.3238 96.0296 24.6939 96.3997C25.0871 96.7929 25.2508 97.2947 25.2508 97.8028C25.2508 98.4075 25.0508 99.0195 24.5155 99.4477C24.0228 99.8418 23.3977 99.9548 22.8108 99.9548H3.32281C2.7501 99.9548 2.13944 99.8551 1.65145 99.4972C1.10562 99.097 0.882812 98.5034 0.882812 97.8988C0.882812 97.3373 1.09942 96.8291 1.51653 96.444C1.90118 96.089 2.40001 95.8892 2.90595 95.7725L2.93256 95.7663L5.15918 95.3791C5.78954 95.2587 6.26944 95.1226 6.61752 94.9808C6.97907 94.8335 7.1263 94.7088 7.17156 94.6561L7.19655 94.6269L7.22371 94.5997C7.27384 94.5496 7.37773 94.4041 7.46467 94.0563C7.55009 93.7146 7.60281 93.2426 7.60281 92.6188V36.1708C7.60281 35.5471 7.55009 35.0751 7.46467 34.7334C7.37773 34.3856 7.27384 34.2401 7.2237 34.1899L7.19655 34.1628L7.17156 34.1336C7.1263 34.0808 6.97907 33.9562 6.61752 33.8089C6.2695 33.6671 5.78971 33.5311 5.15951 33.4107L2.93256 33.0234L2.90595 33.0172C2.40001 32.9005 1.90117 32.7007 1.51653 32.3456C1.09942 31.9606 0.882812 31.4524 0.882812 30.8908C0.882812 30.2863 1.10562 29.6927 1.65145 29.2924C2.13944 28.9346 2.7501 28.8348 3.32281 28.8348H22.8108C26.7191 28.8348 30.236 29.5974 33.338 31.1484C36.4328 32.6958 38.8774 34.8622 40.6444 37.6466C42.4232 40.3854 43.2988 43.5537 43.2988 47.1148C43.2988 51.3643 42.012 55.2215 39.4527 58.6563L39.447 58.6639C37.0255 61.8501 33.9865 64.1678 30.3432 65.6007C32.2667 66.6067 33.8155 67.9669 34.9639 69.6857C36.2759 71.554 37.2421 73.99 37.899 76.9459L37.9004 76.952L40.0132 86.7479C40.7117 90.0499 41.5123 92.2566 42.357 93.4955C43.1648 94.6802 44.0936 95.1708 45.1788 95.1708C45.5896 95.1708 45.9146 95.1217 46.1685 95.0425C46.5228 94.8856 46.9906 94.6131 47.5814 94.1996L47.6027 94.1847L47.6248 94.1708C48.323 93.7345 49.1282 93.5635 49.9311 93.8839C50.3087 94.0035 50.664 94.2265 50.918 94.5894C51.1794 94.9627 51.2668 95.3889 51.2668 95.7868C51.2668 97.3859 50.2103 98.6138 48.6635 99.5278L48.6488 99.5365L48.6337 99.5447C47.0571 100.405 45.2556 100.819 43.2588 100.819C40.2329 100.819 37.6852 99.8169 35.7023 97.7805C33.7463 95.7716 32.4142 92.8331 31.6243 89.0808ZM49.5948 94.8268C49.1468 94.6348 48.6668 94.6988 48.1548 95.0188C47.5148 95.4668 46.9708 95.7868 46.5228 95.9788C46.1388 96.1068 45.6908 96.1708 45.1788 96.1708C43.7068 96.1708 42.4908 95.4668 41.5308 94.0588C40.5708 92.6508 39.7388 90.2828 39.0348 86.9548L36.9228 77.1628C36.2828 74.2828 35.3548 71.9788 34.1388 70.2508C32.9868 68.5228 31.3868 67.1788 29.3388 66.2188C28.8908 66.0268 28.6668 65.8028 28.6668 65.5468C28.7308 65.2268 28.9868 65.0028 29.4348 64.8748C33.1468 63.5308 36.2188 61.2588 38.6508 58.0588C41.0828 54.7948 42.2988 51.1468 42.2988 47.1148C42.2988 43.7228 41.4668 40.7468 39.8028 38.1868C38.1388 35.5628 35.8348 33.5148 32.8908 32.0428C29.9468 30.5708 26.5868 29.8348 22.8108 29.8348H3.32281C2.36281 29.8348 1.88281 30.1868 1.88281 30.8908C1.88281 31.4668 2.29881 31.8508 3.13081 32.0428L5.33881 32.4268C6.68281 32.6828 7.54681 33.0348 7.93081 33.4828C8.37881 33.9308 8.60281 34.8268 8.60281 36.1708V92.6188C8.60281 93.9628 8.37881 94.8588 7.93081 95.3068C7.54681 95.7548 6.68281 96.1068 5.33881 96.3628L3.13081 96.7468C2.29881 96.9388 1.88281 97.3228 1.88281 97.8988C1.88281 98.6028 2.36281 98.9548 3.32281 98.9548H22.8108C23.7708 98.9548 24.2508 98.5708 24.2508 97.8028C24.2508 97.2268 23.8988 96.8748 23.1948 96.7468L19.6428 96.1708C17.8508 95.8508 16.6988 95.4668 16.1868 95.0188C15.6748 94.5068 15.4188 93.5788 15.4188 92.2348V68.2348C15.4188 67.5308 15.6748 66.9548 16.1868 66.5068C16.6988 65.9948 17.4028 65.7388 18.2988 65.7388C20.9228 65.7388 22.9708 66.0588 24.4428 66.6988C25.9788 67.3388 27.1628 68.5548 27.9948 70.3468C28.8908 72.1388 29.6908 74.7628 30.3948 78.2188L32.6028 88.8748C34.1388 96.1708 37.6908 99.8188 43.2588 99.8188C45.1148 99.8188 46.7468 99.4348 48.1548 98.6668C49.5628 97.8348 50.2668 96.8748 50.2668 95.7868C50.2668 95.2748 50.0428 94.9548 49.5948 94.8268ZM30.4471 36.9653L30.4387 36.9565C28.1084 34.5097 24.8429 33.2348 20.5068 33.2348C18.908 33.2348 17.8915 33.5415 17.2932 33.993C16.748 34.4045 16.4188 35.0365 16.4188 36.0748V58.0588C16.4188 59.6069 16.8807 60.6051 17.6613 61.2459C18.4797 61.9177 19.8183 62.3388 21.8508 62.3388C25.9586 62.3388 28.9331 60.9946 30.9462 58.4091C33.0153 55.6874 34.0988 52.0185 34.0988 47.3068C34.0988 42.7592 32.844 39.3623 30.4557 36.9739L30.4471 36.9653ZM31.7388 59.0188C29.4988 61.8988 26.2028 63.3388 21.8508 63.3388C17.5628 63.3388 15.4188 61.5788 15.4188 58.0588V36.0748C15.4188 33.5148 17.1148 32.2348 20.5068 32.2348C25.0508 32.2348 28.6028 33.5788 31.1628 36.2668C33.7868 38.8908 35.0988 42.5708 35.0988 47.3068C35.0988 52.1708 33.9788 56.0748 31.7388 59.0188Z" fill="white"/>
<path d="M42.496 6.48C41.1306 5.37067 38.912 4.43201 35.84 3.66401C32.8533 2.896 30.592 2.512 29.056 2.512C27.52 2.512 26.624 2.512 26.368 2.512C21.76 2.59734 18.432 3.792 16.384 6.096C14.336 8.31467 13.312 10.832 13.312 13.648C13.312 16.464 14.208 18.8533 16 20.816C17.792 22.6933 20.0106 24.1867 22.656 25.296C25.3866 26.32 28.288 27.5147 31.36 28.88C34.5173 30.2453 37.4186 31.6533 40.064 33.104C42.7946 34.4693 45.056 36.5173 46.848 39.248C48.64 41.8933 49.536 45.2213 49.536 49.232C49.536 53.2427 48.128 56.656 45.312 59.472C42.496 62.288 39.3386 64.1653 35.84 65.104C32.4266 66.0427 28.7146 66.512 24.704 66.512C16 66.512 9.47198 64.592 5.11998 60.752L5.88797 59.984C7.59464 61.6053 10.112 62.928 13.44 63.952C16.8533 64.976 20.1386 65.488 23.296 65.488C28.3306 65.488 32.4693 64.1227 35.712 61.392C39.04 58.576 40.704 55.12 40.704 51.024C40.704 46.8427 39.4666 43.5147 36.992 41.04C34.5173 38.48 31.488 36.5173 27.904 35.152C24.4053 33.7013 20.864 32.2933 17.28 30.928C13.696 29.4773 10.6666 27.5147 8.19197 25.04C5.71731 22.48 4.47997 19.536 4.47997 16.208C4.47997 12.88 5.24797 10.192 6.78397 8.144C8.31997 6.01067 10.368 4.51734 12.928 3.66401C17.28 2.21334 21.632 1.48801 25.984 1.48801C33.3226 1.48801 39.04 2.85334 43.136 5.584L42.496 6.48Z" fill="#1DADCD"/>
<path fill-rule="evenodd" clip-rule="evenodd" d="M42.6912 7.92712L41.8654 7.25612C40.6712 6.28587 38.6234 5.39064 35.5974 4.63415L35.5909 4.63252C32.6213 3.86887 30.4606 3.512 29.056 3.512H26.3773C21.915 3.59615 18.9172 4.75128 17.1314 6.76037L17.1251 6.76739L17.1188 6.77428C15.2278 8.82281 14.312 11.1026 14.312 13.648C14.312 16.2268 15.1228 18.3684 16.731 20.1335C18.4131 21.8935 20.505 23.3071 23.0252 24.3665C25.7704 25.3964 28.6827 26.5959 31.7617 27.9642C34.9354 29.3368 37.858 30.7545 40.5283 32.2182C43.4181 33.6669 45.8025 35.8344 47.68 38.6933C49.607 41.5409 50.536 45.0755 50.536 49.232C50.536 53.5058 49.0241 57.1741 46.0191 60.1791C43.0927 63.1055 39.7859 65.08 36.1028 66.0688C32.5932 67.0338 28.7917 67.512 24.704 67.512C15.8745 67.512 9.06557 65.567 4.45835 61.5018L3.66019 60.7976L5.87008 58.5877L6.57673 59.259C8.13011 60.7347 10.4867 61.9966 13.7301 62.995C17.061 63.994 20.2484 64.488 23.296 64.488C28.1407 64.488 32.0371 63.1788 35.0668 60.6279C38.1862 57.9881 39.704 54.8046 39.704 51.024C39.704 47.0525 38.5362 43.9984 36.2849 41.7471L36.2789 41.7411L36.273 41.735C33.908 39.2885 31.0056 37.4037 27.548 36.0865L27.5344 36.0813L27.521 36.0757C24.0314 34.6288 20.499 33.2244 16.924 31.8625L16.9143 31.8588L16.9048 31.8549C13.2096 30.3593 10.0638 28.326 7.48487 25.7471L7.47888 25.7411L7.47299 25.735C4.83194 23.0029 3.47997 19.8147 3.47997 16.208C3.47997 12.7327 4.28205 9.81753 5.97806 7.5519C7.63963 5.24748 9.86123 3.63216 12.6117 2.71532C17.0602 1.23252 21.5188 0.488007 25.984 0.488007C33.4289 0.488007 39.3682 1.87029 43.6907 4.75195L44.55 5.32484L42.6912 7.92712ZM6.78397 8.144C5.24797 10.192 4.47997 12.88 4.47997 16.208C4.47997 19.536 5.71731 22.48 8.19197 25.04C10.6666 27.5147 13.696 29.4773 17.28 30.928C20.864 32.2933 24.4053 33.7013 27.904 35.152C31.488 36.5173 34.5173 38.48 36.992 41.04C39.4666 43.5147 40.704 46.8427 40.704 51.024C40.704 55.12 39.04 58.576 35.712 61.392C32.4693 64.1227 28.3306 65.488 23.296 65.488C23.2024 65.488 23.1086 65.4876 23.0148 65.4867C21.912 65.4761 20.7936 65.4033 19.6597 65.2684C17.636 65.0276 15.5627 64.5888 13.44 63.952C10.112 62.928 7.59464 61.6053 5.88797 59.984L5.11998 60.752C5.36996 60.9726 5.62712 61.1868 5.89147 61.3947C9.26924 64.0513 13.8193 65.6736 19.5416 66.2614C20.6491 66.3752 21.8005 66.4502 22.9958 66.4865C23.5556 66.5035 24.125 66.512 24.704 66.512C28.7146 66.512 32.4266 66.0427 35.84 65.104C39.3386 64.1653 42.496 62.288 45.312 59.472C48.128 56.656 49.536 53.2427 49.536 49.232C49.536 45.2213 48.64 41.8933 46.848 39.248C45.056 36.5173 42.7946 34.4693 40.064 33.104C37.4186 31.6533 34.5173 30.2453 31.36 28.88C28.288 27.5147 25.3866 26.32 22.656 25.296C20.0106 24.1867 17.792 22.6933 16 20.816C14.208 18.8533 13.312 16.464 13.312 13.648C13.312 10.832 14.336 8.31467 16.384 6.096C18.432 3.792 21.76 2.59734 26.368 2.512H29.056C29.9821 2.512 31.1718 2.65159 32.6252 2.93077C33.5824 3.11463 34.654 3.35904 35.84 3.66401C38.384 4.30001 40.3428 5.05305 41.7164 5.92314C42.0014 6.10372 42.2613 6.28934 42.496 6.48L43.136 5.584C42.8605 5.40033 42.5776 5.22283 42.2874 5.05151C39.7041 3.52635 36.5394 2.49076 32.7933 1.94474C31.606 1.77167 30.3602 1.64779 29.056 1.57309C28.5916 1.54649 28.1198 1.52613 27.6407 1.512C27.0979 1.49601 26.5457 1.48801 25.984 1.48801C21.632 1.48801 17.28 2.21334 12.928 3.66401C10.368 4.51734 8.31997 6.01067 6.78397 8.144Z" fill="black"/>
<defs>
<linearGradient id="paint0_linear_7_26" x1="61.1805" y1="110.852" x2="0.882812" y2="110.852" gradientUnits="userSpaceOnUse">
<stop offset="0.425" stop-color="#E6D40F"/>
<stop offset="0.785" stop-color="#630606"/>
</linearGradient>
<linearGradient id="paint1_linear_7_26" x1="39.5626" y1="2.37083" x2="39.5626" y2="89.6218" gradientUnits="userSpaceOnUse">
<stop offset="0.175" stop-color="#E47F37"/>
<stop offset="0.85" stop-color="#5A3784"/>
</linearGradient>
<linearGradient id="paint2_linear_7_26" x1="24.3407" y1="-36.6142" x2="34.44" y2="185.21" gradientUnits="userSpaceOnUse">
<stop offset="0.295" stop-color="#130C75"/>
<stop offset="0.459459" stop-color="#130C75"/>
<stop offset="0.671149" stop-color="#0B0742"/>
<stop offset="0.86" stop-color="#0F095C"/>
<stop offset="1" stop-color="#9E9AD0"/>
</linearGradient>
</defs>
</svg>
